
        <svg xmlns:rdf="http://www.w3.org/1999/02/22-rdf-syntax-ns#" xmlns="http://www.w3.org/2000/svg" xmlns:cc="http://creativecommons.org/ns#" xmlns:xlink="http://www.w3.org/1999/xlink" xmlns:dc="http://purl.org/dc/elements/1.1/" x="0px" y="0px" width="500" height="399" viewBox="0 0 500 399" xml:space="preserve">
            <title>Acropora palmata (Elkhorn Coral) 2</title>
            <desc xmlns:ian_image_library="https://ian.umces.edu/media-library/">
                <ian_image_library:title>Acropora palmata (Elkhorn Coral) 2</ian_image_library:title>
                <ian_image_library:descr>Illustration of Acropora palmata (Elkhorn Coral)</ian_image_library:descr>
                <ian_image_library:scene>
                    <ian_image_library:contains>Elkhorn, coral, Cnidaria, Anthozoa, Scleractinia, Acroporidae, Acropora, A. palmata</ian_image_library:contains>
                    <ian_image_library:when>2008-06-24</ian_image_library:when>
                </ian_image_library:scene>
            </desc>
            <metadata id="metadata-iil-e302a055955d95e419ddcd526ce26170">
                <rdf:RDF>
                <cc:Work
                rdf:about="">
                <dc:format>image/svg+xml</dc:format>
                <dc:type
                rdf:resource="http://purl.org/dc/dcmitype/StillImage" />
                <cc:license
                rdf:resource="http://creativecommons.org/licenses/by-sa/3.0/" />
                <dc:title>Acropora palmata (Elkhorn Coral) 2</dc:title>
                <dc:date>2008-06-24</dc:date>
                <dc:creator>
                    <cc:Agent>
                        <dc:title></dc:title>
                    </cc:Agent>
                </dc:creator>
                <dc:rights>
                <cc:Agent>
                    <dc:title></dc:title>
                </cc:Agent>
                </dc:rights>
                <dc:publisher>
                <cc:Agent>
                    <dc:title>Integration and Application Network</dc:title>
                </cc:Agent>
                </dc:publisher>
                <dc:identifier>https://ian.umces.edu/media-library/acropora-palmata-elkhorn-coral-2/</dc:identifier>
                <dc:source>https://ian.umces.edu/media-library/acropora-palmata-elkhorn-coral-2/</dc:source>
                <dc:language>en-US</dc:language>
                <dc:subject>
                <rdf:Bag>
                    <rdf:li>Elkhorn, coral, Cnidaria, Anthozoa, Scleractinia, Acroporidae, Acropora, A. palmata</rdf:li>
                </rdf:Bag>
                </dc:subject>
                <dc:coverage></dc:coverage>
                <dc:description>Illustration of Acropora palmata (Elkhorn Coral)</dc:description>
                <dc:contributor>
                <cc:Agent>
                    <dc:title></dc:title>
                </cc:Agent>
                </dc:contributor>
            </cc:Work>
            <cc:License
                rdf:about="http://creativecommons.org/licenses/by-sa/3.0/">
                <cc:permits
                rdf:resource="http://creativecommons.org/ns#Reproduction" />
                <cc:permits
                rdf:resource="http://creativecommons.org/ns#Distribution" />
                <cc:requires
                rdf:resource="http://creativecommons.org/ns#Notice" />
                <cc:requires
                rdf:resource="http://creativecommons.org/ns#Attribution" />
                <cc:permits
                rdf:resource="http://creativecommons.org/ns#DerivativeWorks" />
                <cc:requires
                rdf:resource="http://creativecommons.org/ns#ShareAlike" />
            </cc:License>
            </rdf:RDF>
            </metadata>
            
<g id="ian_symbols_a46d499c355dfec4f98b49c99e35c937">
	<g>
			<linearGradient id="ian_symbols_f39258f459f74fa409ebd0003b3539f7" gradientUnits="userSpaceOnUse" x1="878.1167" y1="1359.015" x2="1674.8044" y2="1359.015" gradientTransform="matrix(0.1996 0 0 -0.1996 -137.1699 465.3063)">
			<stop  offset="0" style="stop-color:#927644"/>
			<stop  offset="0.3539" style="stop-color:#625248"/>
			<stop  offset="1" style="stop-color:#443834"/>
		</linearGradient>
		<path fill="url(#ian_symbols_f39258f459f74fa409ebd0003b3539f7)" d="M194.68,232.811c-0.46-0.152-0.746-0.558-1.22-0.719c-0.499-0.176-1.199-0.137-1.739-0.304
			c-2.216-0.685-3.997-1.6-6.402-1.791c-1.884-0.137-4.22-1.203-5.771-2.045c-0.815-0.435-0.949-1.106-1.764-1.595
			c-0.839-0.474-1.82-0.778-2.634-1.36c-1.544-1.11-2.792-2.397-4.328-3.508c-2.811-2.01-5.861-3.571-9.239-4.946
			c-2.082-0.851-4.066-1.835-6.334-2.235c-0.881-0.152-1.566-0.622-2.412-0.822c-0.631-0.152-1.179-0.078-1.789-0.401
			c-0.555-0.308-0.934-0.846-1.497-1.184c-1.673-0.993-3.51-1.962-4.858-3.175c-0.736-0.646-1.238-1.169-2.444-1.13
			c-1.333,0.054-1.639,0.934-2.623,0.025c-0.548-0.499-0.895-1.468-1.375-2.055c-0.597-0.753-0.832-0.597-1.769-1.007
			c-0.731-0.333-1.761-0.876-2.329-1.399c-0.869-0.783-0.82-0.695-2.033-0.954c-1.319-0.289-3.036-0.949-4.166-1.551
			c-0.729-0.382-1.223-0.856-1.962-1.238c-0.619-0.308-0.694-0.23-1.436-0.435c-0.851-0.22-0.939-0.435-1.707-0.724
			c-1.92-0.714-3.826-1.164-5.661-2.094c-1.46-0.729-2.996-0.759-4.589-0.876c-1.096-0.083-1.216-0.475-2.013-1.003
			c-0.575-0.377-1.252-0.582-1.808-0.905c-0.748-0.45-0.942-1.155-1.539-1.668c-1.037-0.939-1.798-0.333-3.109-0.582
			c-0.815-0.161-1.48-0.054-2.197-0.445c-0.709-0.396-0.438-1.673-0.978-2.148c-0.435-0.386-0.956-0.249-1.436-0.508
			c-0.489-0.265-0.553-0.847-1.013-1.062c-0.183-0.098-1.037-0.137-1.275-0.195c-0.479-0.118-0.988-0.382-1.504-0.489
			c-0.474-0.103-1.04-0.064-1.519-0.191c-1.069-0.303-1.942-0.973-3.092-1.292c-1.079-0.274-2.092-0.793-3.148-1.042
			c-0.521-0.122-1.013-0.015-1.517-0.191c-0.67-0.225-0.876-0.758-1.522-1.018c-1.395-0.568-2.742-0.881-3.948-1.83
			c-0.91-0.724-1.517-2.114-2.473-2.662c-0.785-0.425-2.219-0.156-3.109-0.181c-1.179-0.049-2.138-0.343-3.322-0.416
			c-1.404-0.078-1.927-0.764-3.18-1.116c-1.358-0.372-2.774-0.137-4.191-0.646c-1.612-0.568-2.625-1.111-4.41-1.111
			c-1.052,0-2.104-0.015-3.156-0.015c-1.142,0-2.407-0.117-3.427,0.108c-1.135,0.269-2.155,1.742-3.616,1.409
			c-1.46-0.308-0.555-2.089-1.228-2.348c-0.731-0.279-2.128,0.401-2.994,0.44c-2.001,0.088-6.392,0.548-7.444-1.272
			c-0.614-1.067-0.174-2.774-0.217-4.022c-0.013-0.978,0.139-0.738,0.511-1.497c0.401-0.866,0.773-1.727,0.489-2.661
			c-0.088,0.362,0.294-1.517,0.499-2.632c0.176-0.891,0.306-0.714,1.319-0.758c2.15-0.088,2.24-1.786,3.755-2.725
			c0.773-0.489,1.262-1.443,2.155-1.776c0.517-0.181,1.49-0.269,2.036-0.377c1.032-0.201,1.47-0.201,2.317-0.748
			c0.565-0.357,2.309-0.123,2.97,0.543c1.504-0.905,2.688-1.556,4.041-0.387c1.341,1.179,0.959,2.388,2.067,2.764
			c1.111,0.372,0.937-0.705,1.974-0.338c0.597,0.21,0.964,0.411,1.62,0.621c0.947,0.284,1.482,0.895,2.329,1.282
			c0.702,0.313,0.895,0.142,1.678,0.264c1.959,0.284,1.504,1.918,3.677,1.576c1.438-0.215,3.53-0.626,5.019-0.338
			c1.329,0.249,1.69,1.512,3.056,1.712c1.164,0.186,0.993-0.445,1.705-0.768c0.822-0.421,1.02,0.078,1.522,0.323
			c1.179,0.563,0.741,0.142,1.938,0.074c1.11-0.054,1.154,0.797,2.062,1.101c0.878,0.303,1.113-0.279,1.661-0.26
			c0.915,0.02,1.111,0.768,1.925,1.062c0.753-0.342,0.939-1.106,1.536-1.561c0.805,0.166,0.915,1.091,1.571,1.169
			c0.759,0.117,0.817-0.391,1.522-0.367c0.764,0.025,0.983,0.572,1.612,0.822c0.969,0.44,1.549-0.02,2.559,0.039
			c1.218,0.054,1.972,1.135,3.32,0.68c0.467-0.171,1.023-1.077,1.524-1.106c0.416-0.02,0.786,0.435,1.091,0.548
			c1.546,0.611,3.807,1.047,5.419,0.42c1.062-0.411,1.544-0.42,2.695-0.533c1.111-0.108,2.099-0.978,3.051-1.492
			c0.435-0.23,0.805-0.572,1.285-0.733c0.871-0.309,0.851-0.044,1.558,0.059c1.164,0.191,2.383,0.083,3.574,0.083
			c0.507,0,1.042-0.03,1.551,0.01c0.536,0.035,1.042,0.274,1.544,0.309c0.832,0.049,1.822-0.318,2.779-0.299
			c1.692,0,3.224-0.372,4.887-0.44c1.417-0.039,29.38,8.601,29.38,8.601l34.128,61.161c0.01,0.01-1.81,0.709-2.429,0.509
			L194.68,232.811z"/>
			<linearGradient id="ian_symbols_65c612454779a18405d4e2d5fcf95a2c" gradientUnits="userSpaceOnUse" x1="878.1035" y1="1506.053" x2="1395.9843" y2="1506.053" gradientTransform="matrix(0.1996 0 0 -0.1996 -137.1699 465.3063)">
			<stop  offset="0" style="stop-color:#C3B896"/>
			<stop  offset="0.5449" style="stop-color:#927644"/>
			<stop  offset="1" style="stop-color:#6B5F46"/>
		</linearGradient>
		<path fill="url(#ian_symbols_65c612454779a18405d4e2d5fcf95a2c)" d="M42.784,169.962c1.852-2.525,4.427-4.575,6.832-6.727c0.949-0.856,1.918-1.336,3.266-0.778
			c0.59,0.235,1.111,0.563,1.754,0.705c0.881,0.176,1.771,0.02,2.666-0.044c2.473-0.147,4.247,0.768,6.16,1.932
			c0.854,0.534,1.786,1.164,2.874,1.341c1.089,0.171,1.969-0.196,2.877-0.656c1.401-0.724,2.326-1.076,3.586,0.03
			c1.145,1.018,1.786,1.751,3.618,1.297c1.83-0.45,3.51-0.944,5.453-0.479c1.972,0.46,2.906,1.595,3.978,2.901
			c2.509,3.087,8.148-1.052,11.165-1.634c2.092-0.411,3.868,0.347,5.77,0.954c2.571,0.827,4.937,0.68,7.574,0.108
			c2.791-0.621,5.399-1.223,8.337-0.954c3.139,0.284,6.165,0.455,9.321,0.215c4.897-0.387,9.484-1.38,13.454-3.513
			c-4.173-1.208-7.397-2.114-7.86-2.109c-1.661,0.069-3.192,0.44-4.888,0.44c-0.954-0.02-1.947,0.347-2.777,0.299
			c-0.501-0.035-1.011-0.27-1.544-0.304c-0.509-0.044-1.045-0.015-1.551-0.015c-1.194,0-2.41,0.108-3.574-0.083
			c-0.707-0.103-0.687-0.362-1.558-0.059c-0.482,0.161-0.849,0.508-1.285,0.738c-0.951,0.514-1.94,1.38-3.05,1.487
			c-1.152,0.117-1.634,0.122-2.696,0.533c-1.612,0.626-3.873,0.191-5.421-0.416c-0.303-0.117-0.672-0.572-1.091-0.553
			c-0.499,0.029-1.057,0.934-1.524,1.106c-1.348,0.455-2.099-0.621-3.317-0.68c-1.011-0.059-1.59,0.401-2.559-0.039
			c-0.631-0.249-0.851-0.797-1.612-0.817c-0.704-0.029-0.761,0.479-1.522,0.362c-0.655-0.078-0.766-1.003-1.57-1.169
			c-0.597,0.455-0.783,1.218-1.537,1.566c-0.815-0.299-1.013-1.047-1.928-1.067c-0.543-0.02-0.78,0.563-1.658,0.26
			c-0.908-0.304-0.952-1.15-2.062-1.096c-1.196,0.064-0.761,0.484-1.94-0.073c-0.501-0.244-0.697-0.748-1.52-0.328
			c-0.712,0.328-0.541,0.954-1.705,0.773c-1.365-0.205-1.727-1.462-3.056-1.717c-1.489-0.289-3.584,0.122-5.019,0.342
			c-2.175,0.338-1.717-1.297-3.677-1.58c-0.783-0.122-0.976,0.049-1.678-0.264c-0.846-0.387-1.382-0.993-2.329-1.282
			c-0.656-0.21-1.025-0.411-1.619-0.621c-1.038-0.367-0.864,0.714-1.977,0.338c-1.108-0.377-0.724-1.585-2.065-2.764
			c-1.353-1.169-2.537-0.519-4.041,0.387c-0.661-0.661-2.405-0.9-2.97-0.543c-0.846,0.553-1.284,0.553-2.317,0.748
			c-0.546,0.108-1.519,0.195-2.038,0.377c-0.891,0.333-1.38,1.287-2.153,1.776c-1.515,0.939-1.605,2.637-3.755,2.725
			c-1.016,0.044-1.143-0.132-1.319,0.758c-0.205,1.115-0.59,2.994-0.501,2.632c0.286,0.939-0.088,1.796-0.487,2.666
			c-0.374,0.758-0.526,0.514-0.511,1.497c0.044,1.243-0.396,2.95,0.215,4.017c0.411,0.729,1.37,1.081,2.493,1.252
			c0-0.064-0.013-0.108-0.013-0.147c0.081-1.492,0.983-2.862,1.879-4.071L42.784,169.962z"/>
			<linearGradient id="ian_symbols_8c053fb75bf7e074d9839c861f440151" gradientUnits="userSpaceOnUse" x1="2339.1919" y1="1431.408" x2="3192.2339" y2="1431.408" gradientTransform="matrix(0.1996 0 0 -0.1996 -137.1699 465.3063)">
			<stop  offset="0" style="stop-color:#927644"/>
			<stop  offset="0.6966" style="stop-color:#927644"/>
			<stop  offset="1" style="stop-color:#D1D0B0"/>
		</linearGradient>
		<path fill="url(#ian_symbols_8c053fb75bf7e074d9839c861f440151)" d="M372,250.562c0.697-2.167,25.382-20.412,34.695-28.695c9.295-8.288,17.356-20.583,29.061-25.505
			c8.936-3.767,17.486-6.463,24.803-13.19c3.657-3.361,6.957-7.055,10.649-10.363c3.99-3.552,8.359-6.546,12.694-9.633
			c4.024-2.867,12.973-5.494,15.541-9.819c2.431-4.129-3.856-7.294-4.257-14.995c-0.208-4.491,2.906-9.472,0-14.237
			c-2.214-3.694-8.352-6.458-11.135-8.866c-3.611-3.072-5.445-3.425-10.027-4.227c-6.02-1.047-11.598-2.95-17.694-2.27
			c-4.362,0.494-7.525-0.22-10.385,3.429c-2.417,3.092-0.9,16.287-1.145,20.006c-0.306,4.271-2.974-0.435-5.039,3.381
			c-2.067,3.807-5.949,2.896-9.6,6.243c-6.328,5.822-3.747,6.042-5.007,8.078c-0.771,1.267-3.048,2.397-3.841,5.015
			c-0.685,2.26,1.36,4.741,0.387,7.691c-0.658,2.016-2.535,0.803-4.54,2.28c-2.018,1.502-4.178,5.69-5.46,6.184
			c-10.649,4.149-6.923-1.228-11.835-2.461c-5.186-1.336-9.869-4.1-14.983-5.724c-2.792-0.886-7.735-4.222-8.095,0.758
			c-0.333,4.682,4.978,6.923,8.224,8.899c4.025,2.456,7.642,5.925,8.21,10.95c0.563,4.863,0.203,12.544-3.42,15.744
			c-3.611,3.185-9.993,5.113-14.382,6.835c-4.457,1.742-10.509,2.27-14.932,4.09c-4.124,1.727-7.953,3.488-11.211,6.61
			l-19.543,20.108l42.259,13.699L372,250.562z"/>
			<linearGradient id="ian_symbols_adc81e2fa410b7c449da60c2b1b894af" gradientUnits="userSpaceOnUse" x1="3191.1084" y1="1410.7491" x2="2452.1665" y2="1410.7491" gradientTransform="matrix(0.1996 0 0 -0.1996 -137.1699 465.3063)">
			<stop  offset="0" style="stop-color:#927644"/>
			<stop  offset="0.3539" style="stop-color:#625248"/>
			<stop  offset="1" style="stop-color:#443834"/>
		</linearGradient>
		<path fill="url(#ian_symbols_adc81e2fa410b7c449da60c2b1b894af)" d="M406.697,221.872c9.293-8.288,17.356-20.583,29.062-25.505c8.936-3.767,17.484-6.463,24.803-13.19
			c3.657-3.361,6.955-7.055,10.649-10.363c3.99-3.552,8.359-6.546,12.694-9.633c4.024-2.867,12.972-5.494,15.541-9.819
			c0.127-0.235,0.257-0.484,0.331-0.724c-1.47-1.482-3.105-3.239-4.009-4.633c-1.879-2.911-3.293-6.179-4.403-9.428
			c-1.118-3.268-1.612-6.512-1.789-9.941c-0.049-1.067-0.122-2.158-0.663-3.092c-0.638-1.067-1.729-1.806-2.752-2.461
			c-2.581-1.673-5.331-3.258-8.075-4.702c-2.397-1.252-4.599-1.722-7.295-1.414c-3.633,0.391-7.214,0.934-10.901,0.92
			c-1.685,0-3.346-0.142-5.024-0.103c-0.842,0.01-1.857,0.01-2.473,0.651c-0.711,0.734-0.738,1.991-0.814,2.926
			c-0.12,1.615-0.12,3.219-0.23,4.819c-0.203,3.67-0.522,7.594-1.957,11.033c-3.075,7.378-12.444,7.75-17.532,13.127
			c-2.823,2.965-3.041,6.928-3.466,10.754c-0.509,4.706-1.776,9.061-4.621,12.897c-2.444,3.278-5.908,5.788-7.98,9.32
			c-2.297,3.928-2.608,8.767-3.699,13.102c-1.421,5.548-3.829,11.145-8.535,14.707c-5.012,3.772-11.441,4.364-17.43,5.387
			c-7.29,1.262-14.247,3.503-19.991,8.318c-6.192,5.196-10.128,12.309-13.853,19.355l19.72,6.39c0.699-2.172,25.38-20.422,34.7-28.7
			L406.697,221.872z"/>
			<linearGradient id="ian_symbols_327461eed4cf6c54ede1123e137dff39" gradientUnits="userSpaceOnUse" x1="1700.2592" y1="2333.4082" x2="2064.3311" y2="268.6967" gradientTransform="matrix(0.1996 0 0 -0.1996 -137.1699 465.3063)">
			<stop  offset="0" style="stop-color:#927644"/>
			<stop  offset="0.3539" style="stop-color:#625248"/>
			<stop  offset="1" style="stop-color:#443834"/>
		</linearGradient>
		<path fill="url(#ian_symbols_327461eed4cf6c54ede1123e137dff39)" d="M122.49,32.531c-0.372-1.736-0.372-4.134-1.852-6.306c-0.585-0.871-1.394-1.341-1.69-2.427
			c-0.529-1.801,0.037-1.781,1.759-1.933c0.328-1.311-0.088-2.695,0.073-4.021c0.166-1.159-0.594-2.72,0.851-3.342
			c2.08-0.915,3.582,2.119,4.907,1.688c1.48-0.509,0.013-1.746,1.549-1.932c0.673-0.078,2.177,1.042,3.261,0.768
			c1.304-0.328,1.522-1.194,2.307-1.15c1.287,0.064,2.136,0.328,3.266,0.764c1.429,0.558,2.906,0,4.437,0.386
			c1.537,0.391,1.509,3.361,5.189,4.814c3.006,1.199,6.942,0.578,10.012,0c2.899-0.543,3.263,2.354,5.947,3.029
			c1.524,0.387,3.258,0.734,4.837,0.529c1.979-0.244,2.006-1.062,2.048-2.779c0.02-0.866-0.218-1.781-0.225-2.554
			c0-0.837-0.907-0.592,0.198-1.38c1.497-1.042,2.593,1.257,3.792-0.02c0.786-0.866,0.428-2.887,1.287-3.767
			c1.409-1.448,4.479,1.849,4.43-1.331c1.796-0.22,2.454-0.646,4.005,0.264c1.186,0.67,2.16,1.443,3.637,1.302
			c1.314-0.127,2.067-1.038,3.339-1.365c1.282-0.352,2.542-0.083,3.767,0.343c1.6,0.582,2.833,1.472,4.545,1.654
			c2.048,0.225,2.439,0.376,3.863,2.026c1.624,1.854,1.991,4.506,2.6,6.854c0.744,2.745,1.023,4.966,2.772,7.275
			c1.172,1.566,0.729,2.309,1.13,4.144c0.107,0.504,0.501,0.837,0.609,1.473c0.157,0.846,0.088,1.678,0.265,2.514
			c0.127,0.602,0.215,1.908,0.413,2.417c0.413,0.988,0.134,0.578,1.306,0.636c1.673,0.083,3.347-0.675,3.55,1.316
			c0.169,1.927-0.548,2.28,1.47,3.351c1.375,0.719,1.918,0.851,1.945,2.764c2.331,0.23,3.332,2.172,3.332,4.246
			c0.022,1.174,0.042,1.972,0.631,3.014c0.663,1.174,1.091,2.001,1.593,3.19c0.364,0.837,0.866,1.522,1.186,2.3
			c0.291,0.646,0.418,1.673,0.878,2.295c1.091,1.458,2.446,2.349,3.963,3.19c1.776,0.988,4.093,1.052,5.766,2.407
			c1.314,1.042,2.412,3.087,3.53,4.403c1.091,1.292,1.502,2.994,2.972,4.178c0.753,0.602,1.539,1.037,2.216,1.668
			c0.839,0.763,1.436,1.639,2.586,2.084c1.152,0.435,5.062-1.355,6.857-1.375c1.788-0.03,5.438,0.181,7.681-1.6
			c1.531-1.248,1.959-1.903,2.317-3.812c0.191-0.993,0.359-1.825,0.122-2.833c-0.149-0.69-0.908-1.512-0.746-2.265
			c0.435-1.981,2.925-0.851,4.31-1.218c1.759-0.455,2.344-2.285,3.041-3.767c0.597-1.272,1.402-2.5,1.96-3.767
			c0.793-1.806-0.115-2.588-0.333-4.286c-0.413-3.312,0.739-6.287-0.697-9.438c-0.665-1.468-1.546-2.96-1.213-4.623
			c0.365-1.83,1.429-3.229,1.409-5.186c-0.007-3.263-0.976-6.708-1.566-9.903c-0.543-2.965-0.345-9.951,0.123-10.059
			c0.467-0.088,0.594,1.179,1.252,1.101c0.257-0.67,0-1.257,0.237-1.928c0.609,0,0.954,0.587,1.544,0.455
			c0.448-0.112,0.448-1.717,1.091-1.849c0.602-0.137,1.979,0.66,3.42,0.636c1.316-0.034,2.955,1.101,3.41,1.125
			c0.479,0.025,1.678-1.879,1.942-1.741c0.134,0.069,0.494,1.071,1.612,1.624c1.098,0.548,2.935,0.67,3.828,1.233
			c0.976,0.582,1.057,1.37,2.241,0.152c0.741-0.769,0.673-1.673,1.14-2.574c0.805-1.561,0.648-0.783,2.255-1.135
			c1.659-0.342,1.659-2.314,3.386-2.153c0.754,0.069,2.63,1.169,3.288,1.586c0.433,0.293,0.56,0.788,1.015,1.032
			c0.521,0.289,1.179,0.142,1.788,0.269c0.21,0.842-0.296,2.109,0.44,2.627c0.556,0.387,2.182-0.034,2.879,0.152
			c1.084,0.284,0.934,0.92,2.102-0.132c0.606-0.538,1.049-1.8,1.651-1.805c0.631-0.03,1.647,1.399,2.684,1.067
			c0.866-0.299,1.042-1.204,1.979-1.302c1.82-0.181,2.696,1.62,4.105,2.075c1.038,0.313,1.421-0.318,2.255-0.543
			c0.895-0.23,1.639-0.166,2.562-0.166c1.746-0.01,3.339-0.265,3.97-2.114c0.541-1.615-0.536-3.821,0.237-5.314
			c0.196-0.372,0.961-1.169,1.238-1.522c0.379-0.509,0.778-1.032,1.186-1.546c0.69-0.866,0.176-1.057,1.497-1.257
			c1.01-0.157,1.605,0.323,2.608-0.103c1.045-0.44,0.839-1.145,2.248-1.233c0.692-0.044,1.504,0.391,2.04,0.391
			c0.976,0,0.386,0.568,1.394-0.279c0.592-0.499,0.739-1.482,1.524-1.893c2.136-1.12,2.757,1.252,4.575,1.238
			c1.693,0,3.351-2.197,5.201-2.006c0.942,0.088,1.22,0.738,2.324,0.597c0.819-0.112,1.531-0.616,2.16-1.052
			c0.421-0.284,0.604-1.199,1.375-1.082c0.895,0.142,0.516,1.213,1.059,1.693c1.673,1.492,2.356-0.651,3.645-1.003
			c1.389-0.411,1.796,0.812,2.727,1.424c1.47,0.973,1.294,0.426,2.581-0.264c1.309-0.709,3.759-0.563,3.733,1.477
			c1.272,0.235,2.248,0.876,3.293,1.502c1.213,0.719,2.771,0.152,3.312,0.793c0.565,0.646,1.478,2.475,1.045,4.007
			c-0.435,1.532,2.507,0.778,2.588,2.07c0.013,0.519-0.658,0.582-0.665,1.067c0,0.616,0.585,1.013,0.631,1.663
			c0.042,1.145-0.704,1.351-0.372,2.3c0.188,0.533,1.008,0.406,1.084,1.125c0.047,0.357-0.556,0.954-0.697,1.203
			c0,0-0.841,1.693-1.091,2.505c-0.23,0.813-0.137,2.319-0.347,3.127c-0.222,0.827-0.785,2.559-1.414,4.11
			c-0.218,0.568-0.149,0.934-0.421,1.497c-0.394,0.832-0.739,1.59-1.091,2.446c-0.433,1.028-1.064,2.696-1.666,3.63
			c-0.521,0.807-1.477,1.263-2.136,2.011c-0.406,0.489-0.682,1.228-1.179,1.649c-0.69,0.607-1.659,0.724-2.402,1.237
			c-0.631,0.44-1.294,1.336-1.857,1.884c-1.103,1.091-1.803,2.319-2.703,3.616c-1.179,1.698-1.952,2.255-3.495,3.41
			c-0.678,0.519-2.703,1.566-2.771,2.417c3.334,0.181,1.822,3.875,3.855,5.157c2.676,1.678,4.506-0.21,6.334-1.981
			c1.788-1.707,4.376-3.44,6.835-3.753c1.532-0.195,2.742,0.489,4.166,0.753c1.729,0.323,2.473-0.225,1.382,1.889
			c2.527-0.695,5.012-1.169,7.647-1.238c2.974-0.088,5.766-0.034,8.577-1.194c5.942-2.436,10.323-9.325,16.909-10.02
			c2.569-0.269,5.284,0.274,7.803,0.651c2.155,0.304,5.502,0.524,6.6,2.784c1.15,2.373-0.482,5.832-1.336,8.063
			c-1.24,3.219-2.574,6.463-4.132,9.53c-2.661,5.25-7.73,8.117-12.561,11.14c-5.054,3.166-10.411,6.052-14.57,10.397
			c-4.323,4.511-5.988,9.404-7.29,15.323c-1.287,5.862-5.986,9.174-10.715,12.383c-5.487,3.757-11.294,7.085-16.238,11.576
			c-5.426,4.961-9.281,10.71-11.558,17.667l-7.532,7.539c-2.792,4.345-5.717,8.577-9.45,12.187
			c-3.997,3.856-8.669,6.776-13.114,10.049c-7.811,5.753-13.183,14.218-19.746,21.282c-5.678,6.116-14.389,18.264-6.613,26.155
			c2.094,2.119,4.939,3.596,7.356,5.269c3.488,2.392,5.399,7.128,9.396,8.542c4.161,1.497,7.965,2.725,12.324,3.429l8.895-1.37
			c5.02-2.119,10.101-3.963,15.473-4.956c5.839-1.106,16.136-1.595,21.488,1.532c5.311,3.112,6.712,6.082,8.217,11.649
			c1.028,3.851,2.642,7.657,5.48,17.784c1.673,5.998-1.561,14.957-2.454,21.111c-0.907,6.189-2.749,12.539-1.937,18.855
			c0.766,6.204,4.173,11.909,6.808,17.481c3.109,6.669,5.758,14.154,10.649,19.771c4.64,5.309,11.429,7.334,17.398,10.68
			c6.184,3.449,12.667,8.909,14.076,16.229c1.206,6.277-3.075,9.863-8.523,11.732c-6.813,2.378-13.853,4.036-20.661,6.526
			c-7.119,2.618-10.485,9.017-18.1,9.717c-3.562,0.333-10.12-1.585-16.434-0.372c-5.428,1.052-10.656,5.2-13.684,5.837
			c-6.451,1.365-9.247-0.46-15.744,0.699c-6.559,1.16-10.039-2.378-16.686-2.686c-13.811-0.602-26.385-2.774-37.704-11.267
			c-6.138-4.624-11.49-10.172-17.024-15.465c-6.314-6.052-12.98-11.649-20.155-16.654c-3.65-2.52-6.299,0.195-11.109-7.31
			c-4.785-7.539-0.678-10.959-0.678-15.074c0-4.11-1.348-10.157-1.309-13.934c0.042-2.696-0.242-4.76-1.057-7.294
			c-0.942-2.955,0.156-5.636,0.34-8.557c0.157-2.402,0.786-4.702,1.199-7.07c0.394-2.436,0-4.545-0.413-6.933
			c-0.969-5.289-4.009-8.689-7.114-12.858c-2.647-3.542-6.028-6.487-8.961-9.79c-1.857-2.089-3.809-3.16-5.981-4.809
			c-2.304-1.786-4.533-3.752-6.815-5.583c-4.296-3.434-8.57-6.683-12.635-10.416c-2.283-2.099-4.883-3.792-6.495-6.497
			c-1.553-2.578-3.036-5.421-4.812-7.843c-1.414-1.971-2.689-3.963-3.67-6.233c-0.563-1.282-0.447-2.324-0.462-3.699
			c-0.008-1.756-0.575-3.244-1.118-4.912c-0.934-2.891-2.554-9.863-1.719-12.74c0.819-2.887-0.82-5.436-2.535-8.024
			c-1.272-1.884-2.412-3.792-3.611-5.7c-3.481-5.484-7.539-10.867-12.789-14.77c-5.326-3.939-12.249-4.247-16.197-10.01
			c-2.013-2.94-3.478-5.098-6.211-7.422c-2.867-2.412-5.913-3.987-9.11-5.91c-2.065-1.262-3.576-2.955-5.406-4.506
			c-1.428-1.189-3.006-1.982-4.548-2.98c-1.605-1.032-2.977-2.392-4.557-3.483c-2.532-1.727-5.321-2.852-8.193-3.914
			c-2.774-1.023-5.445-2.358-8.266-3.278c-2.123-0.705-4.342-1.086-6.412-1.972c-3.023-1.297-5.516-2.974-8.704-3.982
			c-3.725-1.199-7.625-1.179-11.392-2.216c-4.626-1.287-9.382-2.397-13.951-3.86c-4.824-1.546-9.702-3.288-14.557-4.638
			c-1.664-0.465-3.268-0.372-4.968-0.479c-1.955-0.127-3.873-0.563-5.83-0.66c-3.405-0.186-6.297-1.884-9.139-3.733
			c-2.879-1.884-5.644-3.699-7.994-6.233c-1.96-2.109-3.97-4.261-5.13-6.957c-0.878-2.045-0.665-6.233,1.703-6.449
			c2.368-0.22-1.304-2.48,0.817-3.376c2.121-0.895-1.111-2.309-0.188-3.679c0.832-1.218,2.972-0.21,4.374-1.888
			c1.409-1.678-1.463-3.474,0.599-4.232c2.373-0.881,4.029-0.915,5.759-3.112c1.724-2.202,2.867-5.113,2.561-7.931
			c-0.291-2.623-1.654-5-2.023-7.608c-0.726-5.019-0.514-12.383,2.96-16.341c2.043-2.344,4.866-2.857,7.554-4.061
			c2.072-0.929,3.513-2.412,5.074-4.007c2.013-2.094,5.017-5.23,8.088-5.479c2.174-0.181,4.044,1.135,5.89,2.084
			c1.62,0.822,3.249,1.326,5.062,1.639c4.095,0.656,7.681-0.117,11.722-0.729c1.969-0.289,4.069-0.391,5.888-1.301
			c1.189-0.602,2.136-1.595,3.483-1.894c3.548-0.768,5.673,2.632,8.244,4.33c2.554,1.693,6.037,4.115,7.322,2.133
			c1.262-1.967,4.203-0.665,6.272,0.636c1.504,0.935,3.897,1.957,4.45,3.738c0.59,1.85,0.135,4.839,0.059,6.761
			c-0.103,2.559,0.22,4.971,0.9,7.447c0.832,2.974,4.937,4.868,4.452,8.087c-0.257,1.712-1.101,2.921-1.915,4.374
			c-0.617,1.14-1.869,2.51-2.133,3.733c-0.482,2.182,1.252,3.043,2.478,4.369c1.14,1.223,2.336,2.759,2.745,4.379
			c0.677,2.696-0.108,7.662,2.95,9.036c1.695,0.763,3.278-0.421,4.67,1.13c0.832,0.905,1.38,2.314,1.82,3.449
			c1.228,3.121,4.188,5.778,6.957,7.696c1.551,1.086,3.136,1.874,4.858,2.661c2.087,0.974,3.594,3.019,5.754,3.723
			c3.51,1.145,7.75,2.231,11.505,1.541c0.284,0.519,0.594,1.311,1.145,1.61c0.663,0.382,0.759,0.02,1.409,0.093
			c0.981,0.122,1.414,0.66,2.233,0.837c0.047-0.348,0.13-0.666,0.287-0.969c0.961,0.695,1.592-0.421,2.608-0.313
			c0.548,0.069,1.862,0.753,2.405,1.023c0.839,0.411,1.462,1.409,2.404,1.61c1.125,0.259,1.334-0.387,2.351-0.582
			c1.111-0.22,1.918,0.474,2.926,0.729c0.088,0.025,1.776,0.362,1.964,0.362c0.455-0.025,0.746-0.157,1.133-0.201
			c0.69-0.078,1.754-0.738,2.255-0.738c1.341-0.01,1.673,1.13,2.554-0.724c3.327,0.661,5.988-1.913,9.213-2.344
			c1.734-0.234,3.522-0.289,4.349-2.089c0.9-1.991-0.127-4.404-0.501-6.38c-0.345-1.849-0.095-3.097,0.758-4.75
			c0.685-1.326,1.593-2.676,1.247-4.266c-0.325-1.566-1.727-2.397-2.737-3.498c-1.003-1.077-1.428-2.202-1.788-3.591
			c-1.05-3.777-2.749-6.101-5.636-8.719c-2.561-2.314-4.384-4.975-6.666-7.461c-2.331-2.51-5.77-1.771-8.359-3.621
			c-2.439-1.751-2.512-5.416-4.646-7.544c-6.179-6.126-17.865-12.29-21.701-13.586c-3.856-1.292-5.771-6.307-5.771-6.307
			s-1.779-1.938-2.17-3.67L122.49,32.531z"/>
			<linearGradient id="ian_symbols_d310235f57ff54241df7aaa4b658ad3f" gradientUnits="userSpaceOnUse" x1="756.1444" y1="1948.7405" x2="1645.3531" y2="1948.7405" gradientTransform="matrix(0.1996 0 0 -0.1996 -137.1699 465.3063)">
			<stop  offset="0" style="stop-color:#F2EBC8"/>
			<stop  offset="0.4494" style="stop-color:#F3E8B7"/>
			<stop  offset="1" style="stop-color:#9A8843"/>
		</linearGradient>
		<path fill="url(#ian_symbols_d310235f57ff54241df7aaa4b658ad3f)" d="M17.69,49.64c1.531-1.282,3.3-2.485,5.326-2.715c1.629-0.176,3.268,0.284,4.848,0.607
			c1.529,0.328,3.097,0.66,4.663,0.597c1.678-0.039,3.18-0.651,4.67-1.36c5.394-2.588,11.052-6.321,17.237-6.267
			c2.148,0.02,4.088,0.846,6.179,1.125c2.551,0.328,5.064-0.445,7.444-1.184c2.441-0.748,5.184-1.854,7.752-1.458
			c1.805,0.284,2.808,1.561,4.049,2.764c1.198,1.194,2.591,1.673,4.271,1.761c1.585,0.088,3.295-0.171,4.81,0.435
			c1.208,0.464,1.966,1.502,2.656,2.564c0.653,1.052,1.338,2.114,1.784,3.268c1.025,2.627,0.524,5.622,0.788,8.386
			c0.125,1.282,0.137,2.451-0.242,3.698c-0.531,1.801-1.436,3.503-1.72,5.387c-0.783,4.971,4.538,7.926,6.441,11.967
			c1.025,2.197,1.103,4.472,1.419,6.811c0.272,2.162,1.304,3.601,3.016,4.912c4.203,3.219,9.019,5.646,10.979,10.896
			c0.832,2.226,1.546,4.364,2.896,6.355c2.498,3.64,5.969,6.62,9.626,9.022c10.213,6.683,22.283,7.818,34.206,6.938
			c7.507-0.548,15.582-1.307,22.418-4.765c3.764-1.908,6.813-4.447,7.647-8.777c0.786-4.227,0.318-8.723-0.773-12.848
			c-1.043-4.032-2.322-8.254-4.626-11.752c-2.14-3.224-5.296-5.46-8.941-6.708c-0.337-0.122-0.704-0.196-1.042-0.308
			c0.812,1.282,1.443,2.705,1.93,4.433c0.36,1.389,0.785,2.514,1.788,3.591c1.011,1.096,2.412,1.928,2.737,3.493
			c0.345,1.595-0.563,2.94-1.247,4.271c-0.854,1.653-1.103,2.896-0.758,4.745c0.374,1.981,1.402,4.394,0.501,6.385
			c-0.827,1.801-2.615,1.854-4.349,2.084c-3.224,0.436-5.886,3.009-9.213,2.344c-0.881,1.859-1.211,0.719-2.554,0.724
			c-0.501,0-1.566,0.665-2.255,0.738c-0.386,0.049-0.677,0.176-1.133,0.205c-0.188,0-1.874-0.338-1.964-0.367
			c-1.008-0.249-1.815-0.949-2.926-0.724c-1.016,0.195-1.226,0.841-2.351,0.582c-0.942-0.205-1.566-1.199-2.404-1.615
			c-0.543-0.269-1.857-0.954-2.405-1.018c-1.016-0.113-1.646,1.007-2.608,0.308c-0.157,0.308-0.237,0.626-0.287,0.969
			c-0.819-0.176-1.252-0.709-2.233-0.832c-0.65-0.073-0.746,0.284-1.409-0.098c-0.551-0.294-0.861-1.086-1.145-1.61
			c-3.755,0.69-7.994-0.391-11.505-1.536c-2.16-0.704-3.667-2.749-5.754-3.728c-1.722-0.783-3.307-1.57-4.858-2.661
			c-2.769-1.918-5.726-4.57-6.957-7.696c-0.44-1.13-0.988-2.54-1.82-3.449c-1.392-1.551-2.975-0.362-4.67-1.13
			c-3.058-1.375-2.273-6.341-2.95-9.036c-0.409-1.62-1.605-3.156-2.745-4.374c-1.225-1.331-2.96-2.187-2.478-4.369
			c0.264-1.228,1.517-2.598,2.133-3.733c0.815-1.458,1.656-2.662,1.915-4.379c0.484-3.214-3.621-5.113-4.452-8.087
			c-0.68-2.471-1-4.883-0.9-7.442c0.079-1.927,0.531-4.912-0.059-6.761c-0.55-1.781-2.945-2.804-4.45-3.743
			c-2.069-1.297-5.01-2.598-6.272-0.636c-1.285,1.986-4.768-0.44-7.322-2.133c-2.571-1.693-4.697-5.093-8.244-4.33
			c-1.348,0.299-2.295,1.297-3.483,1.899c-1.82,0.91-3.919,1.008-5.888,1.301c-4.041,0.607-7.627,1.38-11.722,0.724
			c-1.813-0.313-3.442-0.812-5.062-1.639c-1.847-0.949-3.716-2.26-5.89-2.079c-3.07,0.249-6.077,3.385-8.088,5.479
			c-1.561,1.59-3.001,3.078-5.074,4.002c-2.688,1.209-5.511,1.722-7.554,4.066c-2.466,2.803-3.27,7.314-3.281,11.502
			c1.169-1.517,2.615-2.862,3.938-3.987L17.69,49.64z"/>
			<linearGradient id="ian_symbols_9667b7fe015976f441a722576d8fb6c3" gradientUnits="userSpaceOnUse" x1="1942.4968" y1="2331.1687" x2="1942.4968" y2="1864.7274" gradientTransform="matrix(0.1996 0 0 -0.1996 -137.1699 465.3063)">
			<stop  offset="0" style="stop-color:#F2EBC8"/>
			<stop  offset="0.4494" style="stop-color:#F3E8B7"/>
			<stop  offset="1" style="stop-color:#9A8843"/>
		</linearGradient>
		<path fill="url(#ian_symbols_9667b7fe015976f441a722576d8fb6c3)" d="M128.251,34.581c-0.242-1.986-0.369-4.721,1.157-6.291c1.174-1.248,2.992-0.9,4.55-1.111
			c2.221-0.294,4.2-1.473,6.421-1.791c2.676-0.372,4.741,0.861,6.456,2.833c1.397,1.619,2.478,3.136,4.844,2.725
			c2.155-0.396,4.484-1.707,6.7-0.983c1.945,0.636,2.478,2.705,3.508,4.222c1.091,1.61,2.791,2.334,4.731,2.29
			c3.543-0.108,6.874-2.955,8.956-5.661c1.294-1.673,1.869-3.807,2.919-5.641c1.428-2.559,3.767-5.079,6.835-5.421
			c2.512-0.274,4.173,1.159,5.866,2.744c1.287,1.233,2.419,0.773,3.978,0.289c1.788-0.572,3.826-0.939,5.019,0.871
			c0.56,0.841,0.866,1.869,1.252,2.828c0.501,1.243,1.072,2.466,1.632,3.674c1.45,3.161,2.392,6.37,2.906,9.825
			c0.386,2.695,0.793,5.264,1.918,7.769c1.593-0.303,3.143-0.455,4.633,0.372c1.823,1.027,3.09,2.935,4.024,4.75
			c1.952,3.787,2.608,8.068,4.249,11.996c2.6,6.199,5.832,12.491,9.883,17.858c3.258,4.32,7.424,7.192,12.566,8.826
			c5.331,1.683,11.162,2.055,16.63,0.832c2.432-0.538,4.946-1.443,6.754-3.229c1.654-1.605,2.439-3.762,2.913-5.984
			c0.433-1.976,0.352-7.226,3.523-6.482c1.003,0.24,1.986,0.616,2.96,0.025c1.355-0.807,1.986-2.676,2.419-4.1
			c1.157-3.752,0.854-7.417,0.643-11.272c-0.222-3.86,0.467-7.994-0.773-11.708c-1.03-3.029-3.347-5.343-3.136-8.743
			c0.081-1.458,0.501-2.862,0.575-4.315c0.081-1.561-0.291-3.063-0.595-4.575c-0.347-1.747-0.611-3.577-0.245-5.343
			c0.218-1.003,0.785-2.544,2.072-2.422c1.152,0.108,2.001,1.375,2.779,2.074c1.008,0.93,2.106,1.321,3.468,0.93
			c3.068-0.866,5.311-3.899,8.745-3.542c1.796,0.166,3.508,0.797,5.284,1.062c2.221,0.352,4.45,0.352,6.7,0.234
			c1.835-0.078,3.665-0.21,5.487,0.064c2.167,0.333,4.288,0.993,6.441,1.399c5.291,0.983,12.085,1.37,16.461-2.397
			c1.52-1.301,2.554-3.043,3.897-4.525c1.24-1.394,2.73-2.456,4.437-3.205c2.167-0.934,4.496-1.311,6.647-2.299
			c1.387-0.641,2.789-1.263,4.178-1.898l4.376-0.499c0.807-1.605,2.84,0.035,4.139-0.318c0.956-0.279,1.979-0.788,2.737-1.399
			c0.589-0.475,1.003-1.091,1.7-1.419c0.651-0.318,1.394-0.455,1.991,0c0.575,0.425,0.778,1.189,1.511,1.453
			c1.436,0.504,2.975-0.954,4.477-0.607c3.146,0.704,4.858,4.34,6.429,6.771c0.854,1.321,1.079,2.96,1.328,4.486
			c0.096,0.479,0.183,0.939,0.291,1.394c0.008-0.147,0.035-0.303,0.054-0.421c0.252-0.812,1.091-2.505,1.091-2.505
			c0.145-0.249,0.746-0.846,0.7-1.203c-0.076-0.719-0.895-0.592-1.086-1.125c-0.33-0.949,0.413-1.155,0.374-2.3
			c-0.049-0.651-0.631-1.047-0.631-1.663c0.008-0.484,0.678-0.553,0.663-1.067c-0.081-1.292-3.021-0.538-2.588-2.07
			c0.436-1.532-0.479-3.361-1.042-4.007c-0.541-0.641-2.101-0.074-3.312-0.793c-1.045-0.626-2.021-1.267-3.293-1.502
			c0.027-2.041-2.427-2.187-3.733-1.477c-1.287,0.689-1.111,1.237-2.581,0.264c-0.934-0.612-1.341-1.835-2.727-1.424
			c-1.289,0.352-1.974,2.495-3.645,1.003c-0.543-0.479-0.164-1.551-1.06-1.693c-0.771-0.117-0.954,0.798-1.375,1.086
			c-0.631,0.43-1.341,0.934-2.16,1.047c-1.106,0.142-1.382-0.509-2.324-0.597c-1.849-0.186-3.508,2.005-5.203,2.005
			c-1.815,0.015-2.439-2.358-4.572-1.237c-0.785,0.411-0.934,1.394-1.524,1.893c-1.008,0.851-0.421,0.279-1.397,0.279
			c-0.533,0-1.348-0.431-2.038-0.392c-1.409,0.088-1.206,0.793-2.248,1.233c-1.002,0.426-1.6-0.054-2.608,0.103
			c-1.321,0.201-0.807,0.392-1.497,1.257c-0.406,0.514-0.807,1.038-1.186,1.546c-0.279,0.352-1.045,1.15-1.24,1.522
			c-0.771,1.492,0.306,3.699-0.237,5.314c-0.629,1.849-2.221,2.104-3.97,2.113c-0.92,0-1.666-0.063-2.559,0.167
			c-0.834,0.225-1.22,0.856-2.258,0.543c-1.409-0.455-2.283-2.255-4.105-2.074c-0.934,0.098-1.11,1.003-1.976,1.302
			c-1.037,0.333-2.053-1.096-2.683-1.067c-0.602,0.005-1.043,1.267-1.654,1.805c-1.164,1.052-1.016,0.416-2.099,0.132
			c-0.699-0.186-2.324,0.235-2.879-0.152c-0.738-0.519-0.23-1.786-0.44-2.627c-0.609-0.127-1.267,0.02-1.788-0.269
			c-0.455-0.244-0.585-0.739-1.018-1.033c-0.656-0.421-2.532-1.517-3.286-1.585c-1.727-0.161-1.727,1.81-3.386,2.153
			c-1.605,0.357-1.45-0.426-2.258,1.135c-0.464,0.9-0.398,1.805-1.137,2.573c-1.184,1.218-1.267,0.431-2.241-0.151
			c-0.895-0.563-2.73-0.685-3.828-1.233c-1.118-0.553-1.478-1.556-1.612-1.624c-0.264-0.137-1.463,1.766-1.945,1.741
			c-0.452-0.02-2.092-1.159-3.408-1.125c-1.443,0.025-2.818-0.773-3.42-0.636c-0.646,0.132-0.646,1.741-1.091,1.849
			c-0.589,0.132-0.934-0.455-1.544-0.455c-0.237,0.67,0.02,1.257-0.237,1.927c-0.658,0.079-0.788-1.189-1.255-1.101
			c-0.465,0.108-0.663,7.094-0.12,10.059c0.587,3.195,1.558,6.639,1.563,9.903c0.022,1.957-1.042,3.356-1.409,5.186
			c-0.33,1.664,0.551,3.156,1.213,4.624c1.436,3.151,0.284,6.125,0.7,9.438c0.215,1.697,1.123,2.48,0.33,4.286
			c-0.556,1.267-1.36,2.495-1.957,3.767c-0.697,1.482-1.28,3.317-3.044,3.767c-1.382,0.367-3.875-0.764-4.308,1.218
			c-0.164,0.754,0.597,1.576,0.743,2.266c0.237,1.007,0.069,1.84-0.12,2.833c-0.36,1.908-0.788,2.564-2.317,3.811
			c-2.243,1.781-5.896,1.571-7.681,1.6c-1.796,0.02-5.705,1.81-6.857,1.375c-1.152-0.445-1.749-1.321-2.588-2.084
			c-0.677-0.631-1.463-1.067-2.214-1.668c-1.47-1.184-1.884-2.887-2.974-4.178c-1.118-1.316-2.214-3.361-3.528-4.403
			c-1.673-1.355-3.99-1.419-5.766-2.407c-1.517-0.842-2.872-1.732-3.963-3.19c-0.46-0.621-0.59-1.649-0.881-2.295
			c-0.318-0.783-0.82-1.463-1.184-2.3c-0.501-1.189-0.93-2.016-1.593-3.19c-0.59-1.042-0.612-1.84-0.631-3.014
			c0-2.074-1-4.016-3.332-4.246c-0.027-1.913-0.57-2.045-1.945-2.764c-2.018-1.072-1.302-1.424-1.47-3.351
			c-0.203-1.996-1.876-1.233-3.55-1.316c-1.171-0.059-0.893,0.352-1.306-0.636c-0.198-0.509-0.286-1.815-0.416-2.417
			c-0.174-0.837-0.108-1.668-0.262-2.515c-0.11-0.636-0.501-0.968-0.609-1.472c-0.401-1.835,0.039-2.579-1.133-4.144
			c-1.746-2.309-2.026-4.53-2.769-7.275c-0.609-2.353-0.976-5-2.603-6.855c-1.421-1.649-1.815-1.8-3.86-2.026
			c-1.715-0.181-2.948-1.071-4.545-1.653c-1.228-0.426-2.488-0.695-3.767-0.343c-1.275,0.328-2.026,1.238-3.339,1.365
			c-1.477,0.142-2.453-0.631-3.637-1.302c-1.551-0.915-2.209-0.484-4.005-0.26c0.047,3.175-3.021-0.122-4.43,1.326
			c-0.861,0.881-0.501,2.896-1.287,3.767c-1.198,1.282-2.297-1.023-3.794,0.02c-1.103,0.788-0.196,0.543-0.196,1.38
			c0.008,0.773,0.245,1.688,0.223,2.554c-0.039,1.717-0.066,2.535-2.045,2.779c-1.578,0.205-3.313-0.142-4.837-0.529
			c-2.683-0.675-3.048-3.572-5.949-3.029c-3.068,0.578-7.003,1.199-10.01,0c-3.679-1.453-3.652-4.423-5.191-4.814
			c-1.529-0.387-3.006,0.166-4.435-0.387c-1.133-0.435-1.979-0.699-3.265-0.763c-0.786-0.044-1.003,0.822-2.307,1.15
			c-1.084,0.279-2.588-0.847-3.263-0.768c-1.534,0.186-0.066,1.423-1.546,1.932c-1.326,0.435-2.83-2.603-4.909-1.688
			c-1.446,0.626-0.683,2.182-0.849,3.342c-0.164,1.326,0.255,2.71-0.076,4.021c-1.72,0.152-2.285,0.127-1.756,1.933
			c0.296,1.086,1.106,1.556,1.688,2.426c1.48,2.172,1.48,4.57,1.854,6.307c0.389,1.732,2.133,3.655,2.133,3.655
			s1.769,4.516,5.259,6.067c-0.134-0.646-0.252-1.282-0.394-1.928c-0.401-1.913-0.971-3.802-1.211-5.749H128.251z"/>
			<linearGradient id="ian_symbols_198f5d6318734ae4ad32bc93884387fb" gradientUnits="userSpaceOnUse" x1="2839.4092" y1="2056.3845" x2="2465.9934" y2="2056.3845" gradientTransform="matrix(0.1996 0 0 -0.1996 -137.1699 465.3063)">
			<stop  offset="0" style="stop-color:#F2EBC8"/>
			<stop  offset="0.4494" style="stop-color:#F3E8B7"/>
			<stop  offset="1" style="stop-color:#9A8843"/>
		</linearGradient>
		<path fill="url(#ian_symbols_198f5d6318734ae4ad32bc93884387fb)" d="M355.218,54.039c-0.739,1.067,1.044,1.976,1.749,2.471c1.489,1.062,2.473,2.109,2.994,3.889
			c0.467,1.615,0.988,2.945,2.275,4.086c1.36,1.184,3.109,2.06,4.817,2.632c1.287,0.44,2.73,0.709,3.982,0.01
			c1.612-0.895,2.581-2.779,3.868-4.046c1.301-1.302,3.008-2.505,4.878-2.779c1.299-0.186,2.505,0.382,3.772,0.578
			c1.945,0.284,3.951,0.284,5.915,0.504c2.233,0.255,4.43,0.646,6.671,0.044c2.405-0.641,4.648-2.099,6.368-3.885
			c1.519-1.58,2.515-3.532,4.303-4.848c2.297-1.712,5.081-2.877,7.715-3.939c1.456-0.592,3.699-1.761,5.331-1.174
			c3.469,1.262,1.654,6.443,1.837,9.021c0.161,2.466,0.888,4.839,1.062,7.324c0.022,0.309,0,0.626,0.022,0.944
			c0.326-0.524,0.651-1.052,0.934-1.619c1.561-3.073,2.894-6.317,4.134-9.535c0.854-2.226,2.485-5.69,1.333-8.058
			c-1.098-2.265-4.442-2.481-6.597-2.784c-2.523-0.382-5.235-0.925-7.807-0.651c-6.583,0.69-10.966,7.579-16.906,10.02
			c-2.813,1.155-5.604,1.101-8.577,1.189c-2.637,0.069-5.12,0.543-7.647,1.243c1.091-2.114,0.345-1.566-1.382-1.894
			c-1.424-0.264-2.635-0.944-4.166-0.748c-2.458,0.313-5.047,2.045-6.835,3.752c-1.83,1.767-3.66,3.66-6.336,1.977
			c-2.03-1.277-0.521-4.971-3.853-5.157c0.005-0.064,0.039-0.127,0.066-0.22c-0.196,0.093-0.399,0.176-0.597,0.245
			c-0.968,0.279-2.688,0.499-3.32,1.409H355.218z"/>
			<linearGradient id="ian_symbols_7fd94da502e0b604a10e2b808bce75e7" gradientUnits="userSpaceOnUse" x1="2338.7764" y1="1290.687" x2="2394.8381" y2="972.8044" gradientTransform="matrix(0.1996 0 0 -0.1996 -137.1699 465.3063)">
			<stop  offset="0" style="stop-color:#D1D0B0"/>
			<stop  offset="0.5449" style="stop-color:#81704C"/>
			<stop  offset="0.9494" style="stop-color:#625248"/>
		</linearGradient>
		<path opacity="0.9" fill="url(#ian_symbols_7fd94da502e0b604a10e2b808bce75e7)" enable-background="new    " d="M294.218,232.44c1.524,3.023,2.764,6.15,3.836,9.355
			c1.191,3.557,2.255,7.182,4.044,10.475c3.197,5.9,8.515,9.472,13.291,13.919c3.097,2.887,6.911,8.552,11.862,7.329
			c4.377-1.076,6.659-6.438,8.352-10.147c0.739-1.605,1.377-3.263,2.102-4.878c0.731-1.649,1.605-3.552,3.219-4.511
			c1.348-0.807,2.831-0.553,4.281-0.23c1.747,0.367,3.034,0.308,4.565-0.695c2.784-1.849,5.176-3.909,8.393-5.035
			c4.31-1.477,8.97-1.497,13.42-0.817c2.627,0.411,5.169,1.203,7.749,1.746c-0.778-2.358-1.382-4.149-1.857-5.91
			c-1.502-5.568-2.904-8.532-8.217-11.649c-5.353-3.121-15.649-2.637-21.486-1.532c-5.372,0.998-10.453,2.838-15.475,4.961
			l-8.895,1.365c-4.355-0.704-8.163-1.927-12.322-3.425c-3.997-1.419-5.908-6.15-9.396-8.542c-2.417-1.673-5.262-3.151-7.356-5.274
			c-1.382-1.399-2.221-2.95-2.676-4.56c-0.839,1.487-1.497,3.073-1.808,4.77c-0.832,4.863,2.38,9.193,4.418,13.293L294.218,232.44z"
			/>
	</g>
</g>
</svg>
